<svg width="20" height="12" viewBox="0 0 20 12" fill="none" xmlns="http://www.w3.org/2000/svg">
<path fill-rule="evenodd" clip-rule="evenodd" d="M10.2829 5.08889C10.2335 5.16627 9.80149 5.41189 9.73952 5.4336C9.66776 5.49774 8.79715 6.02065 8.74368 6.03045C8.69216 6.10356 8.5881 6.14845 8.50594 6.19896C8.43373 6.24336 8.30757 6.32227 8.22081 6.35408C8.19748 6.39199 8.07609 6.45105 8.03317 6.47698L7.38384 6.87123C7.35504 6.78937 7.33489 6.76669 7.33391 6.67393C7.28281 6.62823 7.2798 6.55657 7.25877 6.47684C6.98232 5.46474 7.57013 4.36337 8.50459 3.86074C9.46304 3.3452 10.8 3.64076 11.3835 4.43209C11.3538 4.46314 10.3683 5.08242 10.2829 5.08889ZM12.0081 3.86531C11.9923 3.85673 11.6327 3.51781 11.4526 3.3909C11.3839 3.34251 11.2928 3.30271 11.2447 3.23458C11.1741 3.22233 10.9916 3.11201 10.8968 3.07004C10.8316 3.0412 10.568 2.95231 10.5366 2.93027C10.1537 2.86022 9.94992 2.79403 9.51431 2.80178C9.14575 2.80833 8.87458 2.87529 8.55455 2.97371C8.06672 3.12549 7.60008 3.46652 7.33372 3.73288C6.7689 4.2977 6.63097 4.85694 6.57284 4.93295C6.56406 4.9789 6.56555 4.98824 6.55016 5.03433C6.52925 5.09691 6.53787 5.08092 6.50158 5.1181C6.52284 5.33456 6.24815 5.78183 6.50885 6.83211C6.55105 7.00212 6.63509 7.16014 6.67469 7.3137C6.5705 7.353 6.44296 7.45148 6.33662 7.51335C6.1548 7.61913 5.36968 8.12385 5.28014 8.1373C5.24292 8.19125 5.23573 8.18852 5.17187 8.22705C5.1162 8.26064 5.09668 8.27222 5.03458 8.28864C4.99742 8.34493 4.49784 8.6278 4.4024 8.68868C4.29987 8.75409 3.80536 9.06882 3.73614 9.07671C3.61522 9.25274 3.44348 8.97368 3.13316 8.74784C2.94154 8.60839 2.15804 7.80275 2.04706 7.66434C1.92641 7.51388 1.62147 7.19341 1.56828 7.04635C1.50746 7.01214 1.23224 6.59565 1.16896 6.49716C1.10576 6.3988 1.04269 6.30584 0.98174 6.20457C0.90888 6.0835 0.816994 6.00996 0.938914 5.87432C0.956746 5.81553 0.935211 5.84247 0.989352 5.80781C1.01435 5.64151 1.77891 4.62539 1.89869 4.51657C1.92019 4.44287 1.91227 4.48253 2.02258 4.34661L2.76723 3.56933C2.91154 3.44733 2.97305 3.34873 3.10268 3.29184C3.12224 3.23496 3.21543 3.17572 3.27881 3.12094C3.99167 2.50492 4.94055 1.9503 5.80294 1.57636C5.95912 1.50863 6.75944 1.1869 6.90046 1.20428C6.90477 1.20032 6.91172 1.18906 6.91422 1.19336L6.97337 1.16015C7.01533 1.14536 7.05408 1.14328 7.09391 1.13718C7.42078 0.979208 8.71989 0.830082 9.14455 0.810849C10.5453 0.747399 11.9842 0.984437 13.2498 1.51066C13.5293 1.6269 13.8087 1.75769 14.0763 1.89381C14.2639 1.9892 14.7205 2.23174 14.8371 2.34358C14.2934 2.62414 12.471 3.82938 12.1016 3.99723C12.0148 3.89517 12.0235 3.93797 12.0081 3.86531ZM3.1102 2.21171L2.54571 2.69977C2.3928 2.81512 2.33297 2.9196 2.19872 2.98899L2.17619 3.02184C2.11514 3.09915 1.87657 3.34293 1.80792 3.37416L1.06449 4.26454C0.779928 4.63404 0.420923 5.15633 0.189356 5.55968L0 5.91096V6.08293C0.0433882 6.14801 0.0821159 6.25094 0.128597 6.32802C0.460106 6.87771 0.550112 6.99864 0.905953 7.51159C0.987353 7.62893 1.20871 7.87951 1.24846 7.97293C1.28891 7.99468 1.39146 8.11468 1.43698 8.16889C1.67728 8.45494 1.96078 8.73178 2.22919 9.00461L2.90004 9.58568C2.88238 9.61257 2.9041 9.59032 2.87091 9.61872C2.72779 9.74123 0.222045 11.2032 0.106075 11.3194C0.0376926 11.3879 0.0435656 11.4367 0 11.518V11.6789C0.0636746 11.7824 0.0346467 11.7924 0.125717 11.8807C0.192165 11.9452 0.25558 11.9876 0.374915 11.993C0.593098 12.0029 0.723097 11.8378 0.897081 11.774C0.924861 11.7289 1.12873 11.6231 1.19947 11.5779L2.18945 10.9918C2.22782 10.9374 2.25874 10.93 2.32631 10.8892C2.39704 10.8465 2.41597 10.8208 2.50367 10.7954L3.53336 10.1565C3.5962 10.1201 3.65526 10.0826 3.71505 10.046C3.74526 10.0275 3.78309 10.0039 3.80611 9.99018L3.90036 9.94909C3.90393 9.94486 3.90983 9.93326 3.91182 9.93704C3.91203 9.93744 3.9186 9.91156 4.04766 9.85449L4.50395 9.56278C4.59059 9.51084 4.93728 9.28524 5.00619 9.28093C5.06667 9.20719 5.19094 9.14323 5.28123 9.08715C5.33637 9.05289 5.37982 9.03554 5.42788 9.00385C5.50249 8.95466 5.49829 8.94446 5.59165 8.91558C5.6188 8.8679 5.81876 8.76752 5.8944 8.71969C6.0481 8.62252 6.8233 8.14326 6.8888 8.13553C6.92526 8.06927 6.95177 8.06819 7.02068 8.0306C7.07085 8.00323 7.1284 7.96477 7.17671 7.93606C7.27041 7.88037 7.41467 7.77858 7.51121 7.74914C7.54825 7.69438 7.87813 7.51474 7.95794 7.46531C8.05415 7.40573 8.35389 7.20831 8.428 7.19446C8.46577 7.14087 8.49857 7.13143 8.56542 7.0922C8.6129 7.06434 8.67201 7.02414 8.71932 6.99587C8.82107 6.93508 8.94961 6.84695 9.0552 6.80823C9.08894 6.75776 9.45383 6.55533 9.55197 6.49381C9.64883 6.43309 9.9973 6.20772 10.0763 6.19295C10.1208 6.12984 10.113 6.15231 10.1886 6.10658C10.2325 6.08009 10.2722 6.05031 10.3153 6.02512C10.4126 5.96825 10.4951 5.90747 10.5992 5.86932C10.6111 5.84996 10.6025 5.85981 10.641 5.83111L11.0936 5.55267C11.1951 5.49313 11.5485 5.26314 11.6203 5.25404C11.6718 5.17733 11.808 5.11679 11.8985 5.06294C11.9911 5.00782 12.1145 4.91708 12.2058 4.89067C12.241 4.83896 12.5718 4.65783 12.6526 4.607C12.7508 4.54518 13.0521 4.34792 13.1274 4.33815C13.1701 4.26044 13.3387 4.18512 13.4154 4.13872C13.5303 4.06924 13.6284 4.00298 13.7498 3.94977C13.7797 3.90503 14.1582 3.68892 14.2465 3.63524C14.3525 3.57082 14.6909 3.34942 14.7709 3.33448C14.8135 3.27399 14.8279 3.28215 14.8968 3.24063C14.951 3.20796 14.9844 3.17879 15.0347 3.15073C15.1141 3.10639 15.2421 3.01585 15.319 2.99242C15.3867 2.92729 15.5349 2.85539 15.622 2.7991C15.738 2.72407 15.833 2.67582 15.9489 2.60383C16.0578 2.53625 16.5052 2.24092 16.5909 2.23081C16.6272 2.16666 16.6569 2.16259 16.7334 2.13453L16.8002 2.08082C16.8406 2.05521 16.8537 2.04933 16.8938 2.02591L17.4655 1.6792C17.5749 1.60798 18.1517 1.2415 18.2344 1.22714C18.2812 1.15847 18.3684 1.12571 18.4443 1.09129C18.477 1.04246 18.779 0.880219 18.8529 0.833814C18.9188 0.792396 19.0017 0.745435 19.0548 0.703242C19.1177 0.653129 19.1472 0.570883 19.1956 0.499419V0.293455L19.1757 0.264179C19.1449 0.214551 19.1743 0.262677 19.1582 0.234838L19.0488 0.0931163C18.9794 0.0296132 18.9257 0.00647035 18.8207 0.00298676C18.633 -0.00323521 18.4831 0.121411 18.3607 0.196997L15.9781 1.63621C15.8974 1.70834 15.7025 1.81272 15.6068 1.86886C15.5263 1.83821 15.3711 1.72681 15.295 1.67673C15.192 1.60893 15.0752 1.53821 14.9726 1.47743C12.1813 -0.17525 8.83842 -0.464518 5.76721 0.726521C4.80226 1.10074 4.08021 1.52975 3.27057 2.11084C3.22452 2.14389 3.16262 2.20027 3.1102 2.21171Z" fill="#9F8479"/>
<path fill-rule="evenodd" clip-rule="evenodd" d="M16.8775 4.03573C16.9979 4.11434 17.6804 4.93696 17.7583 5.12059C17.8186 5.14178 18.0141 5.47213 18.0532 5.53233C18.128 5.64753 18.2877 5.87953 18.3294 5.99701C18.2977 6.08811 18.156 6.30086 18.1013 6.38416C18.0517 6.45973 17.9266 6.70166 17.8626 6.72739C17.8221 6.81896 17.7716 6.87888 17.7134 6.95543C17.6614 7.02375 17.6227 7.09239 17.5653 7.16235C17.4612 7.28946 17.361 7.43539 17.2588 7.54436C17.2082 7.59829 17.1423 7.67019 17.0925 7.73249L16.5923 8.27578L15.6533 9.09027C15.5045 9.20261 15.1703 9.46709 15.0227 9.5256C14.985 9.60547 14.0917 10.0867 14.0307 10.1169C11.9279 11.1551 9.68579 11.4809 7.36832 10.9382C6.82183 10.8103 6.08967 10.572 5.58055 10.3269C5.05301 10.0729 5.24102 10.1996 4.96713 10.1826C4.88924 10.2941 4.77266 10.2733 4.74686 10.513C4.72754 10.6926 4.82584 10.792 4.87889 10.8902C4.94177 10.9001 4.879 10.8821 4.94975 10.9156C5.78474 11.3111 6.62729 11.6301 7.55301 11.7974C7.6343 11.8091 7.78304 11.821 7.83835 11.8682C8.23208 11.8115 9.86947 12.3908 12.7975 11.492C13.6106 11.2424 14.6243 10.7638 15.3197 10.3004C15.8715 9.93264 16.6904 9.33941 17.1287 8.85432C17.1829 8.79436 17.2997 8.69207 17.3631 8.6296C17.4495 8.54432 17.5037 8.45456 17.589 8.37559C17.6424 8.32617 17.6561 8.3105 17.6983 8.25486L18.1154 7.75483C18.185 7.66481 18.1707 7.65607 18.2144 7.64523L19.1955 6.09556V5.89847C19.1347 5.81684 19.1051 5.73426 19.0516 5.63968C18.8732 5.32399 18.4778 4.7219 18.268 4.44099C18.1879 4.33375 17.9545 4.05647 17.9262 3.97931C17.868 3.95771 17.7476 3.79297 17.7019 3.73464C17.6596 3.68065 17.6255 3.66129 17.5792 3.6083C17.4543 3.46547 17.1247 3.07697 16.957 3.04022C16.6682 2.97694 16.4242 3.20358 16.4639 3.49058C16.5007 3.75638 16.7906 3.85759 16.8775 4.03573Z" fill="#9F8479"/>
<path fill-rule="evenodd" clip-rule="evenodd" d="M8.11639 8.31043L8.07716 8.39646C7.95955 8.77965 8.2191 8.89872 8.49247 9.00102C10.3625 9.70078 12.4883 8.51953 12.7784 6.36133C12.8254 6.01157 12.7139 5.71805 12.3528 5.74612C12.2037 5.75772 12.0893 5.85853 12.0388 5.95544C11.943 6.1392 12.0484 7.23951 10.9388 7.98514C10.8368 8.05366 10.7314 8.11695 10.6074 8.17469C10.3619 8.289 10.0888 8.36732 9.78259 8.38981C8.69252 8.46989 8.52232 7.8775 8.11639 8.31043Z" fill="#9F8479"/>
</svg>
