<svg width="20" height="12" viewBox="0 0 20 12" fill="none" xmlns="http://www.w3.org/2000/svg">
<path fill-rule="evenodd" clip-rule="evenodd" d="M2.52275 8.16469C2.26977 7.90519 2.11665 7.71921 1.8929 7.47934C1.85762 7.44151 1.84124 7.41773 1.79931 7.36934C1.58051 7.11676 1.18384 6.50647 0.988737 6.20627C0.813774 5.93706 0.892902 5.99843 1.01287 5.77015C1.21373 5.38798 1.54615 4.95105 1.81916 4.61897C2.02109 4.37334 1.96281 4.41387 2.21734 4.15545C2.43236 3.93715 2.64309 3.69813 2.86714 3.48974L3.32629 3.08796C3.8557 2.6706 4.25264 2.36602 4.89587 2.02643C5.45577 1.73084 6.08181 1.42968 6.71217 1.24267C6.77006 1.2255 6.83023 1.21794 6.88933 1.2023C6.95601 1.18465 6.97278 1.16209 7.0513 1.14528C7.16871 1.12016 7.26642 1.07632 7.39349 1.0465C8.37256 0.816735 9.56736 0.745954 10.604 0.850154C11.6064 0.950918 12.543 1.19775 13.3752 1.55635C13.7662 1.72479 14.4755 2.0569 14.8047 2.30334C14.8613 2.34566 14.918 2.35386 15.0744 2.47279L16.0344 3.25121C16.1244 3.32462 16.1894 3.37565 16.2798 3.44415C16.3973 3.5332 16.5005 3.57452 16.533 3.62927C16.5816 3.71087 16.6647 3.78964 16.7323 3.85236C16.7762 3.89312 16.8066 3.91182 16.8451 3.95967L17.3579 4.54256C17.4752 4.68168 17.6219 4.86448 17.7287 5.03342C17.7758 5.10784 17.7657 5.10385 17.8204 5.16107C17.8913 5.23524 18.1931 5.71316 18.2577 5.82009C18.6644 6.49361 15.5969 9.21632 15.1393 9.48163C15.0325 9.54349 14.9736 9.59738 14.8756 9.65665C10.7929 12.1279 5.88355 11.6121 2.52275 8.16469ZM0.00962295 6.08568C0.0476019 6.2458 0.633789 7.11562 0.760344 7.29629C0.967896 7.59258 1.21658 7.92777 1.46215 8.19156L2.11554 8.88509C3.1802 9.94919 4.84486 10.9767 6.30568 11.4763C9.37622 12.5266 12.9627 11.9574 15.6101 10.1245C17.2868 8.96358 17.9905 8.03308 19.0942 6.29534C19.1654 6.17854 19.2467 6.11837 19.2176 5.92909C19.1888 5.74148 18.4509 4.66155 18.269 4.41482C17.6407 3.5626 17.1027 3.15227 16.3484 2.43526C15.5262 1.66769 13.9742 0.882867 12.9022 0.525961C10.7492 -0.190782 8.34974 -0.174536 6.19823 0.571981C4.93565 1.01007 4.27302 1.42975 3.31349 2.0881L2.24874 2.96548C2.18454 3.00931 2.16802 3.04471 2.12653 3.09401C2.04636 3.18928 1.85266 3.34334 1.80851 3.3862C1.79026 3.40391 1.77406 3.42724 1.75803 3.44576L1.08731 4.24662C0.797822 4.62933 0.336089 5.27555 0.119599 5.70674C0.0610593 5.82334 -0.0298389 5.91929 0.00962295 6.08568Z" fill="#9F8479"/>
<path fill-rule="evenodd" clip-rule="evenodd" d="M7.56124 7.20921C9.62338 6.00239 9.62338 6.00239 11.77 4.74899C12.7741 6.53098 10.8496 9.0019 8.78087 8.24936C8.56536 8.17096 7.56993 7.45744 7.56124 7.20921ZM7.56124 7.20921C7.50444 7.14474 7.36684 6.74831 7.33702 6.67238C7.00536 5.828 7.31734 4.95096 7.91037 4.32005C8.73759 3.44001 10.1717 3.37616 11.0788 4.10319C11.1624 4.17022 11.7233 4.64647 11.77 4.74899C9.57433 6.03141 9.57451 6.03131 7.56124 7.20921ZM9.39986 2.80861C8.97795 2.83693 8.45261 2.97659 8.13913 3.15521C7.37606 3.59001 6.97434 4.03311 6.6306 4.84138C6.27361 5.68079 6.39684 6.6797 6.73188 7.4949C6.87853 7.85174 7.37079 8.55639 8.45172 8.98582C9.7866 9.50316 11.2796 9.05888 12.0739 8.04482C12.4853 7.51971 12.8021 6.84721 12.8049 6.16356C12.8054 6.03857 12.8309 5.90965 12.8317 5.77246C12.8388 4.60452 11.8645 3.41432 10.7713 3.01709C10.4478 2.89957 10.4965 2.91552 10.1387 2.8511C9.89363 2.80697 9.65142 2.79173 9.39986 2.80861Z" fill="#9F8479"/>
</svg>
